HIERARCHY
ROOT Hips
{
	OFFSET 0.000000 0.000000 0.000000 
	CHANNELS 6 Xposition Yposition Zposition Yrotation Zrotation Xrotation 
	JOINT Lumbar
	{
		OFFSET 0.000000 0.000000 0.000000 
		CHANNELS 3 Zrotation Xrotation Yrotation
		JOINT Neck
		{
			OFFSET 0.000000 0.445665 0.000000 
			CHANNELS 3 Zrotation Xrotation Yrotation
			End Site
			{
				OFFSET 0.000000 0.227535 0.000000 
			}
		}
		JOINT RightShoulder
		{
			OFFSET 0.019635 0.377685 0.194865 
			CHANNELS 3 Zrotation Xrotation Yrotation
			JOINT RightElbow
			{
				OFFSET 0.000000 -0.243375 0.000000 
				CHANNELS 2 Zrotation Yrotation
				JOINT RightWrist
				{
					OFFSET 0.000000 -0.264825 0.000000 
					CHANNELS 2 Zrotation Xrotation
					End Site
					{
						OFFSET 0.006600 -0.176220 0.000990 
					}
				}
			}
		}
		JOINT LeftShoulder
		{
			OFFSET 0.019635 0.377685 -0.194865 
			CHANNELS 3 Zrotation Xrotation Yrotation
			JOINT LeftElbow
			{
				OFFSET 0.000000 -0.243375 0.000000 
				CHANNELS 2 Zrotation Yrotation
				JOINT LeftWrist
				{
					OFFSET 0.000000 -0.264825 0.000000 
					CHANNELS 2 Zrotation Xrotation
					End Site
					{
						OFFSET 0.006600 -0.176220 -0.000990 
					}
				}
			}
		}
	}
	JOINT RightHip
	{
		OFFSET 0.052140 -0.069960 0.075570 
		CHANNELS 3 Zrotation Xrotation Yrotation
		JOINT RightKnee
		{
			OFFSET 0.000000 -0.402270 0.000000 
			CHANNELS 1 Zrotation
			JOINT RightAnkle
			{
				OFFSET 0.000000 -0.404085 0.000000 
				CHANNELS 3 Zrotation Xrotation Yrotation
				End Site
				{
					OFFSET 0.204105 -0.089430 0.008415 
				}
			}
		}
	}
	JOINT LeftHip
	{
		OFFSET 0.052140 -0.069960 -0.075570 
		CHANNELS 3 Zrotation Xrotation Yrotation
		JOINT LeftKnee
		{
			OFFSET 0.000000 -0.402270 0.000000 
			CHANNELS 1 Zrotation
			JOINT LeftAnkle
			{
				OFFSET 0.000000 -0.404085 0.000000 
				CHANNELS 3 Zrotation Xrotation Yrotation
				End Site
				{
					OFFSET 0.204105 -0.089430 -0.008415 
				}
			}
		}
	}
}
MOTION
Frames: 32
Frame Time: 0.02
-0 0.95578 -0 179.43525 0 -3.78401 2.88279 4.06679 -0.37386 -33.89285 1.94819 1.31731 -10.43554 -62.92463 -90.01167 19.49385 59.58591 -32.50326 -0.90382 11.57878 63.31477 81.31121 16.73956 -90.36984 -26.6231 5.17389 -2.80967 5.04313 -11.6232 -8.07307 0.93564 -4.9954 -11.56823 -1.90645 4.64355 3.01923 -5.29738 4.49947 5.49493 9.47247
3e-05 0.95579 -1e-05 179.43526 0 -3.78359 2.89708 4.0571 -0.35292 -33.973 1.93424 1.31796 -10.33789 -62.89753 -90.01166 19.48747 59.51454 -32.48534 -0.92141 11.65911 63.30548 81.24146 16.75715 -90.42271 -26.59689 5.12187 -2.80891 5.04123 -11.64612 -8.07006 0.93215 -5.00975 -11.5523 -1.90448 4.64363 3.01919 -5.29688 4.4995 5.49484 9.47247
7e-05 0.9558 -3e-05 179.43533 0 -3.78314 2.91133 4.0474 -0.33218 -34.05261 1.9204 1.3187 -10.24057 -62.87067 -90.01165 19.4812 59.44405 -32.46734 -0.93887 11.73901 63.2959 81.17076 16.77576 -90.47288 -26.57101 5.06992 -2.80804 5.03933 -11.66873 -8.06726 0.92874 -5.02402 -11.53668 -1.90252 4.64368 3.01912 -5.29634 4.49944 5.49499 9.47248
0.0001 0.9558 -4e-05 179.43565 0 -3.78255 2.92548 4.03764 -0.3121 -34.13073 1.90668 1.31959 -10.14394 -62.84426 -90.01164 19.47565 59.37584 -32.44961 -0.95589 11.81759 63.28586 81.10005 16.79499 -90.5151 -26.54571 5.01809 -2.80666 5.03728 -11.69009 -8.06547 0.92559 -5.03811 -11.52239 -1.90074 4.64357 3.01909 -5.2953 4.49879 5.49619 9.47241
0.00013 0.95581 -5e-05 179.43466 0 -3.78265 2.94006 4.02826 -0.28858 -34.21657 1.8921 1.3194 -10.04405 -62.81514 -90.01163 19.46674 59.2949 -32.43137 -0.97515 11.90266 63.27922 81.03482 16.80649 -90.6022 -26.51668 4.96609 -2.80789 5.03589 -11.71776 -8.05854 0.92107 -5.05314 -11.50133 -1.89818 4.64425 3.01906 -5.29652 4.50099 5.49193 9.47264
0.00017 0.95582 -6e-05 179.43645 0 -3.78132 2.95378 4.01803 -0.27231 -34.28614 1.87951 1.3217 -9.95089 -62.79199 -90.01163 19.46465 59.24139 -32.41358 -0.98969 11.97425 63.26471 80.95439 16.83737 -90.59242 -26.496 4.9142 -2.80368 5.03318 -11.73227 -8.06235 0.91943 -5.06617 -11.49444 -1.89713 4.64332 3.0189 -5.29321 4.49732 5.49916 9.4723
0.00023 0.95581 -6e-05 179.44602 0 -3.77546 2.96483 4.00574 -0.27696 -34.30967 1.87079 1.32957 -9.87659 -62.7835 -90.01163 19.48444 59.26118 -32.40219 -0.99072 12.0065 63.23297 80.85808 16.90074 -90.32104 -26.49635 4.86371 -2.78313 5.02607 -11.70782 -8.09838 0.92609 -5.07388 -11.52954 -1.90153 4.63726 3.0195 -5.27473 4.47534 5.54004 9.46967
0.00029 0.95581 -4e-05 179.45841 0 -3.76825 2.9751 3.99251 -0.28881 -34.31701 1.86435 1.34029 -9.80903 -62.78138 -90.01164 19.51054 59.30902 -32.3904 -0.98708 12.02561 63.19234 80.74074 16.98886 -89.95074 -26.50641 4.81318 -2.75731 5.01774 -11.67051 -8.14484 0.93561 -5.07954 -11.5785 -1.90724 4.62969 3.01977 -5.2521 4.44778 5.59221 9.46659
0.00034 0.9558 -3e-05 179.46943 0 -3.76202 2.98593 3.97958 -0.29681 -34.33246 1.85789 1.35048 -9.73798 -62.77749 -90.01165 19.53189 59.3458 -32.37532 -0.98592 12.05207 63.15291 80.6169 17.07786 -89.62116 -26.5122 4.76179 -2.73474 5.01043 -11.64078 -8.18489 0.94359 -5.08601 -11.61926 -1.91148 4.62325 3.01951 -5.23312 4.42411 5.63803 9.46421
0.0004 0.9558 -2e-05 179.48073 0 -3.75424 2.99584 3.96734 -0.30719 -34.34462 1.84713 1.35712 -9.66835 -62.76873 -90.01165 19.56142 59.37596 -32.37451 -0.98328 12.07251 63.12581 80.56404 17.11055 -89.30842 -26.51369 4.71375 -2.70858 5.00117 -11.60383 -8.23193 0.95254 -5.09298 -11.66787 -1.91931 4.61494 3.02218 -5.20685 4.39477 5.68901 9.45977
0.00046 0.95579 -2e-05 179.49223 0 -3.74934 3.00755 3.95325 -0.31441 -34.35992 1.84587 1.37225 -9.59788 -62.77175 -90.01166 19.5751 59.42595 -32.34436 -0.98254 12.10263 63.07049 80.35437 17.27278 -88.93846 -26.53108 4.65916 -2.6886 4.99568 -11.57875 -8.26698 0.96022 -5.09844 -11.70365 -1.92008 4.61015 3.0186 -5.19456 4.37587 5.73191 9.45945
0.00052 0.95578 -4e-05 179.50264 0 -3.75301 3.02386 3.93581 -0.31017 -34.38698 1.87027 1.40625 -9.51843 -62.80445 -90.01166 19.54635 59.52957 -32.22909 -0.98909 12.15963 62.94177 79.75176 17.73701 -88.42362 -26.55108 4.58253 -2.68733 5.00096 -11.59072 -8.26541 0.9629 -5.10004 -11.69856 -1.90027 4.61551 2.99826 -5.22367 4.38758 5.74989 9.47111
0.00058 0.95575 -7e-05 179.51336 0 -3.75959 3.04215 3.91625 -0.30259 -34.41796 1.9041 1.44932 -9.43852 -62.84883 -90.01165 19.50105 59.65137 -32.08505 -0.99759 12.22673 62.78374 78.98625 18.34336 -87.85711 -26.59449 4.49998 -2.69241 5.01008 -11.61494 -8.25159 0.96433 -5.10023 -11.68042 -1.87347 4.62444 2.97155 -5.26665 4.4099 5.75931 9.48681
0.00064 0.95573 -0.0001 179.52451 0 -3.76467 3.05989 3.89667 -0.29728 -34.44771 1.93368 1.4909 -9.36244 -62.88892 -90.01165 19.46121 59.76075 -31.95698 -1.00459 12.2921 62.63856 78.27153 18.91293 -87.321 -26.65213 4.4228 -2.69434 5.0174 -11.63275 -8.244 0.96688 -5.1012 -11.66962 -1.85039 4.63167 2.9475 -5.30209 4.4271 5.77254 9.50037
0.0007 0.95571 -0.00012 179.53321 0 -3.77044 3.07601 3.88121 -0.28941 -34.47446 1.9634 1.52185 -9.27251 -62.92566 -90.01164 19.42959 59.88758 -31.81682 -1.01387 12.34778 62.49819 77.65132 19.35222 -86.75047 -26.6032 4.33456 -2.69715 5.02489 -11.65343 -8.23395 0.96727 -5.10151 -11.65348 -1.82507 4.63918 2.92453 -5.34258 4.44541 5.78649 9.51528
0.00076 0.95569 -0.00016 179.54722 0 -3.7755 3.09611 3.85668 -0.28556 -34.50873 1.99478 1.57659 -9.20975 -62.97114 -90.01163 19.37772 59.98339 -31.69481 -1.01913 12.42267 62.33705 76.79946 20.11354 -86.24284 -26.78406 4.26764 -2.69975 5.03296 -11.67151 -8.22599 0.97175 -5.1029 -11.64501 -1.80273 4.647 2.8977 -5.37591 4.46393 5.79678 9.52825
0.00082 0.95563 -0.00023 179.57458 0 -3.77782 3.12594 3.80767 -0.29737 -34.562 2.03059 1.69864 -9.23343 -63.04544 -90.01164 19.26679 59.97818 -31.63124 -1.01112 12.57999 62.15884 75.31606 21.58408 -85.90413 -27.57299 4.26381 -2.69979 5.04166 -11.67693 -8.22688 0.9884 -5.10767 -11.66247 -1.79036 4.65465 2.86231 -5.38591 4.48097 5.79896 9.53555
0.00087 0.95556 -0.00032 179.60756 0 -3.77934 3.15992 3.74957 -0.31269 -34.62311 2.06732 1.84356 -9.28138 -63.12643 -90.01161 19.13774 59.94373 -31.58625 -0.99948 12.75154 61.95435 73.61068 23.40221 -85.63471 -28.59582 4.28125 -2.69948 5.05084 -11.67985 -8.23029 1.00913 -5.11358 -11.68783 -1.7812 4.66253 2.82306 -5.38828 4.4978 5.79771 9.54062
0.00093 0.95551 -0.0004 179.63864 0 -3.7813 3.19248 3.69564 -0.32384 -34.68098 2.1022 1.97544 -9.31199 -63.19967 -90.01166 19.02116 59.92878 -31.53252 -0.99043 12.89434 61.74055 72.02844 25.15453 -85.3449 -29.52556 4.28702 -2.69967 5.05985 -11.6856 -8.23239 1.02751 -5.11897 -11.70837 -1.77059 4.67041 2.78537 -5.39423 4.51435 5.79807 9.54623
0.001 0.95544 -0.00049 179.66662 0 -3.78307 3.22295 3.6416 -0.34547 -34.73686 2.14349 2.11883 -9.3731 -63.29423 -90.01164 18.88453 59.88532 -31.4809 -0.97687 13.12695 61.61652 70.34853 26.51694 -85.00448 -30.40181 4.30058 -2.69874 5.06882 -11.68458 -8.23454 1.04774 -5.1244 -11.7333 -1.75979 4.67798 2.74867 -5.40012 4.53273 5.79797 9.55395
0.00104 0.95538 -0.00057 179.70284 0 -3.78499 3.259 3.58548 -0.34647 -34.79965 2.1715 2.24357 -9.37159 -63.34452 -90.01153 18.78757 59.89774 -31.42732 -0.97256 13.18153 61.2983 68.81898 28.77943 -84.78899 -31.44287 4.30359 -2.69987 5.07792 -11.69695 -8.23761 1.06536 -5.12996 -11.75158 -1.75012 4.6862 2.70859 -5.40425 4.54724 5.79809 9.55677
0.001 0.95537 -0.00067 179.75672 0 -3.78761 3.30724 3.52754 -0.28689 -34.87178 2.1626 2.31077 -9.23025 -63.28175 -90.01192 18.78743 60.04138 -31.3831 -0.98809 12.69446 60.46231 67.7775 33.37895 -84.88324 -32.89834 4.26791 -2.70771 5.08717 -11.74649 -8.24034 1.07258 -5.13632 -11.74564 -1.74392 4.69618 2.66429 -5.40452 4.54991 5.79994 9.54582
0.00093 0.95536 -0.00077 179.8194 0 -3.79038 3.36145 3.46753 -0.20699 -34.95235 2.14028 2.35831 -9.016 -63.17194 -90.01126 18.83101 60.24878 -31.33218 -1.0142 12.03851 59.42999 66.88987 38.88213 -85.10563 -34.5087 4.22181 -2.71744 5.09652 -11.80965 -8.24437 1.07745 -5.14272 -11.73345 -1.73856 4.70678 2.61594 -5.40339 4.5489 5.80213 9.53015
0.00087 0.95534 -0.00088 179.88047 0 -3.793 3.41425 3.4074 -0.13816 -35.03378 2.124 2.41528 -8.81182 -63.07675 -90.01166 18.86602 60.44549 -31.27255 -1.03983 11.48772 58.47948 65.92362 44.01404 -85.28022 -36.03678 4.18327 -2.72563 5.10589 -11.86672 -8.2494 1.08479 -5.14857 -11.72684 -1.73211 4.71706 2.56676 -5.40341 4.55027 5.80397 9.51717
0.00081 0.95533 -0.00098 179.9316 0 -3.79593 3.46132 3.35143 -0.06154 -35.09438 2.10787 2.47153 -8.71319 -63.01108 -90.01301 18.85309 60.56003 -31.26571 -1.04728 10.80881 57.55819 64.99649 48.99706 -85.40856 -37.62197 4.13317 -2.7366 5.11508 -11.92309 -8.24793 1.08627 -5.15641 -11.70927 -1.72878 4.72752 2.52881 -5.40103 4.54847 5.80642 9.50186
0.00076 0.95531 -0.00108 180.00553 0 -3.79824 3.52215 3.28641 0.00355 -35.20187 2.08839 2.52361 -8.36791 -62.8717 -90.00788 18.95011 60.86622 -31.14391 -1.09488 10.36731 56.53118 64.01449 54.49363 -85.66851 -39.12354 4.10484 -2.74234 5.12458 -11.98444 -8.26011 1.09946 -5.16048 -11.71253 -1.71909 4.7377 2.46646 -5.40339 4.55261 5.80785 9.49025
0.00074 0.95525 -0.00116 180.13948 0 -3.79903 3.61545 3.19731 0.03316 -35.42283 2.06147 2.57447 -7.43685 -62.54769 -90.01705 19.34365 61.64341 -30.73467 -1.25343 10.53123 55.24854 62.95037 61.23992 -86.20865 -40.34255 4.13508 -2.73221 5.13555 -12.05402 -8.311 1.14474 -5.15096 -11.77833 -1.69176 4.74746 2.33868 -5.41937 4.57219 5.80529 9.49037
0.00072 0.95516 -0.00123 180.29606 0 -3.79914 3.72311 3.09917 0.05012 -35.69311 2.03184 2.62047 -6.24506 -62.14913 -90.01069 19.84487 62.61913 -30.20562 -1.45172 10.95772 53.86885 61.80403 68.45824 -86.88439 -41.47433 4.18807 -2.71688 5.14669 -12.12848 -8.37534 1.20207 -5.13821 -11.86466 -1.65795 4.75682 2.18645 -5.4402 4.59824 5.80194 9.49432
0.00071 0.95508 -0.00131 180.44297 0 -3.79943 3.82687 3.00494 0.07213 -35.95011 2.0045 2.66524 -5.12223 -61.78054 -89.99442 20.29564 63.53241 -29.71143 -1.62983 11.32291 52.54112 60.62993 75.42663 -87.53396 -42.6527 4.2334 -2.70462 5.15736 -12.2023 -8.43254 1.25433 -5.12905 -11.93921 -1.627 4.76604 2.04462 -5.4587 4.62247 5.79967 9.49625
0.00068 0.95503 -0.0014 180.58819 0 -3.80028 3.91986 2.91141 0.09825 -36.16944 1.97253 2.7247 -4.20771 -61.42919 -90.0624 20.75797 64.33169 -29.29544 -1.81647 11.43393 51.17235 59.74771 82.58448 -88.04561 -43.8036 4.26769 -2.68967 5.16977 -12.27037 -8.49394 1.30459 -5.11105 -12.02374 -1.59645 4.77664 1.90509 -5.4776 4.64171 5.79425 9.49915
0.00068 0.95492 -0.00145 180.74143 0 -3.7998 4.03849 2.8144 0.11196 -36.47811 1.94937 2.75162 -2.79618 -61.02187 -89.93535 21.21666 65.41337 -28.69357 -1.9956 12.14302 49.86985 58.22138 89.4377 -88.86593 -44.99361 4.32971 -2.67879 5.17853 -12.35084 -8.55001 1.36216 -5.11054 -12.0926 -1.56351 4.78423 1.75571 -5.49696 4.6731 5.79533 9.50103
0.00072 0.95467 -0.00142 180.91737 0 -3.79591 4.22533 2.70916 0.09963 -37.02694 1.95373 2.69823 -0.0958 -60.50103 -89.40958 21.67729 67.23592 -27.5597 -2.13622 14.40584 48.76403 55.06172 95.41293 -90.58409 -46.27181 4.46998 -2.68273 5.17767 -12.46875 -8.58593 1.43474 -5.16042 -12.11179 -1.52577 4.78396 1.57937 -5.51516 4.73498 5.8136 9.49906
